{
  "accessors": [
    {
      "bufferView": 2,
      "componentType": 5126,
      "count": 4261,
      "max": [
        263.06927490234375,
        51.20911407470703,
        100.25569915771484
      ],
      "min": [
        -205.58074951171875,
        -54.36626434326172,
        -100.25569915771484
      ],
      "type": "VEC3"
    },
    {
      "bufferView": 2,
      "byteOffset": 51132,
      "componentType": 5126,
      "count": 4261,
      "max": [
        1.0,
        1.0,
        1.0
      ],
      "min": [
        -1.0,
        -0.9999953508377075,
        -1.0
      ],
      "type": "VEC3"
    },
    {
      "bufferView": 3,
      "componentType": 5126,
      "count": 4261,
      "max": [
        1.0,
        1.0,
        1.0,
        1.0
      ],
      "min": [
        -1.0,
        -1.0,
        -1.0,
        -1.0
      ],
      "type": "VEC4"
    },
    {
      "bufferView": 1,
      "componentType": 5126,
      "count": 4261,
      "max": [
        0.9979999661445618,
        0.9954116344451904
      ],
      "min": [
        0.0020000000949949026,
        0.0020000000949949026
      ],
      "type": "VEC2"
    },
    {
      "bufferView": 0,
      "componentType": 5125,
      "count": 14946,
      "type": "SCALAR"
    },
    {
      "bufferView": 2,
      "byteOffset": 102264,
      "componentType": 5126,
      "count": 114,
      "max": [
        72.93205261230469,
        47.62762451171875,
        79.52821350097656
      ],
      "min": [
        -69.40887451171875,
        16.76042366027832,
        -79.52821350097656
      ],
      "type": "VEC3"
    },
    {
      "bufferView": 2,
      "byteOffset": 103632,
      "componentType": 5126,
      "count": 114,
      "max": [
        0.6398174166679382,
        0.9996089339256287,
        0.9311679005622864
      ],
      "min": [
        -0.6859712600708008,
        0.3547866940498352,
        -0.9311679005622864
      ],
      "type": "VEC3"
    },
    {
      "bufferView": 3,
      "byteOffset": 68176,
      "componentType": 5126,
      "count": 114,
      "max": [
        0.9996047616004944,
        0.69691401720047,
        0.4217151701450348,
        1.0
      ],
      "min": [
        -0.008753358386456966,
        -0.9312942624092102,
        -1.0,
        -1.0
      ],
      "type": "VEC4"
    },
    {
      "bufferView": 1,
      "byteOffset": 34088,
      "componentType": 5126,
      "count": 114,
      "max": [
        0.9910442233085632,
        0.4268593490123749
      ],
      "min": [
        0.013217894360423088,
        0.005947544239461422
      ],
      "type": "VEC2"
    },
    {
      "bufferView": 1,
      "byteOffset": 35000,
      "componentType": 5126,
      "count": 114,
      "max": [
        0.9910442233085632,
        0.4268593490123749
      ],
      "min": [
        0.013217894360423088,
        0.005947544239461422
      ],
      "type": "VEC2"
    },
    {
      "bufferView": 0,
      "byteOffset": 59784,
      "componentType": 5125,
      "count": 372,
      "type": "SCALAR"
    },
    {
      "bufferView": 2,
      "byteOffset": 105000,
      "componentType": 5126,
      "count": 4,
      "max": [
        340.09716796875,
        204.33258056640625,
        0.0
      ],
      "min": [
        -340.09716796875,
        -204.33258056640625,
        0.0
      ],
      "type": "VEC3"
    },
    {
      "bufferView": 2,
      "byteOffset": 105048,
      "componentType": 5126,
      "count": 4,
      "max": [
        0.0,
        0.0,
        1.0
      ],
      "min": [
        0.0,
        0.0,
        1.0
      ],
      "type": "VEC3"
    },
    {
      "bufferView": 1,
      "byteOffset": 35912,
      "componentType": 5126,
      "count": 4,
      "max": [
        1.0,
        1.0
      ],
      "min": [
        0.0,
        0.0
      ],
      "type": "VEC2"
    },
    {
      "bufferView": 0,
      "byteOffset": 61272,
      "componentType": 5125,
      "count": 6,
      "type": "SCALAR"
    }
  ],
  "asset": {
    "extras": {
      "author": "Renafox (https://sketchfab.com/kryik1023)",
      "license": "CC-BY-NC-SA-4.0 (http://creativecommons.org/licenses/by-nc-sa/4.0/)",
      "source": "https://sketchfab.com/3d-models/fallout-corvega-atomic-v8-35deff5251eb432485c5a252d96040ea",
      "title": "Fallout - Corvega Atomic V8"
    },
    "generator": "Sketchfab-12.68.0",
    "version": "2.0"
  },
  "bufferViews": [
    {
      "buffer": 0,
      "byteLength": 61296,
      "name": "floatBufferViews",
      "target": 34963
    },
    {
      "buffer": 0,
      "byteLength": 35944,
      "byteOffset": 61296,
      "byteStride": 8,
      "name": "floatBufferViews",
      "target": 34962
    },
    {
      "buffer": 0,
      "byteLength": 105096,
      "byteOffset": 97240,
      "byteStride": 12,
      "name": "floatBufferViews",
      "target": 34962
    },
    {
      "buffer": 0,
      "byteLength": 70000,
      "byteOffset": 202336,
      "byteStride": 16,
      "name": "floatBufferViews",
      "target": 34962
    }
  ],
  "buffers": [
    {
      "byteLength": 272336,
      "uri": "scene.bin"
    }
  ],
  "images": [
    {
      "uri": "textures/Material_185_baseColor.png"
    },
    {
      "uri": "textures/Material_185_metallicRoughness.png"
    },
    {
      "uri": "textures/Material_185_normal.png"
    },
    {
      "uri": "textures/Material_184_baseColor.png"
    },
    {
      "uri": "textures/Material_218_baseColor.png"
    },
    {
      "uri": "textures/Material_218_metallicRoughness.png"
    }
  ],
  "materials": [
    {
      "doubleSided": true,
      "name": "Material_185",
      "normalTexture": {
        "index": 2
      },
      "occlusionTexture": {
        "index": 1
      },
      "pbrMetallicRoughness": {
        "baseColorTexture": {
          "index": 0
        },
        "metallicRoughnessTexture": {
          "index": 1
        }
      }
    },
    {
      "alphaMode": "BLEND",
      "doubleSided": true,
      "name": "Material_184",
      "normalTexture": {
        "index": 2
      },
      "occlusionTexture": {
        "index": 1
      },
      "pbrMetallicRoughness": {
        "baseColorTexture": {
          "index": 3
        },
        "metallicRoughnessTexture": {
          "index": 1
        }
      }
    },
    {
      "alphaMode": "BLEND",
      "doubleSided": true,
      "name": "Material_218",
      "occlusionTexture": {
        "index": 5
      },
      "pbrMetallicRoughness": {
        "baseColorTexture": {
          "index": 4
        },
        "metallicFactor": 0.0,
        "metallicRoughnessTexture": {
          "index": 5
        },
        "roughnessFactor": 0.6
      }
    }
  ],
  "meshes": [
    {
      "name": "Box003_Material #185_0",
      "primitives": [
        {
          "attributes": {
            "NORMAL": 1,
            "POSITION": 0,
            "TANGENT": 2,
            "TEXCOORD_0": 3
          },
          "indices": 4,
          "material": 0,
          "mode": 4
        }
      ]
    },
    {
      "name": "Box003_Material #184_0",
      "primitives": [
        {
          "attributes": {
            "NORMAL": 6,
            "POSITION": 5,
            "TANGENT": 7,
            "TEXCOORD_0": 8,
            "TEXCOORD_1": 9
          },
          "indices": 10,
          "material": 1,
          "mode": 4
        }
      ]
    },
    {
      "name": "Plane001_Material #218_0",
      "primitives": [
        {
          "attributes": {
            "NORMAL": 12,
            "POSITION": 11,
            "TEXCOORD_0": 13
          },
          "indices": 14,
          "material": 2,
          "mode": 4
        }
      ]
    }
  ],
  "nodes": [
    {
      "children": [
        1
      ],
      "matrix": [
        0.012615064159035683,
        0.0,
        0.0,
        0.0,
        0.0,
        2.8011069372970005e-18,
        -0.012615064159035683,
        0.0,
        0.0,
        0.012615064159035683,
        2.8011069372970005e-18,
        0.0,
        0.0,
        0.0,
        0.0,
        1.0
      ],
      "name": "Sketchfab_model"
    },
    {
      "children": [
        2
      ],
      "matrix": [
        1.0,
        0.0,
        0.0,
        0.0,
        0.0,
        0.0,
        1.0,
        0.0,
        0.0,
        -1.0,
        0.0,
        0.0,
        0.0,
        0.0,
        0.0,
        1.0
      ],
      "name": "corvega_display.FBX"
    },
    {
      "children": [
        3,
        6
      ],
      "name": "RootNode"
    },
    {
      "children": [
        4,
        5
      ],
      "matrix": [
        1.0,
        0.0,
        0.0,
        0.0,
        0.0,
        0.9999999999999867,
        1.6292068494294582e-07,
        0.0,
        0.0,
        -1.6292068494294582e-07,
        0.9999999999999867,
        0.0,
        -26.254581451416016,
        55.12412643432617,
        3.160803885293717e-07,
        1.0
      ],
      "name": "Box003"
    },
    {
      "mesh": 0,
      "name": "Box003_Material #185_0"
    },
    {
      "mesh": 1,
      "name": "Box003_Material #184_0"
    },
    {
      "children": [
        7
      ],
      "matrix": [
        1.0,
        0.0,
        0.0,
        0.0,
        0.0,
        2.220446049250313e-16,
        -1.0,
        0.0,
        0.0,
        1.0,
        2.220446049250313e-16,
        0.0,
        -2.5991973876953125,
        0.0,
        0.39654541015625,
        1.0
      ],
      "name": "Plane001"
    },
    {
      "mesh": 2,
      "name": "Plane001_Material #218_0"
    }
  ],
  "samplers": [
    {
      "magFilter": 9729,
      "minFilter": 9987,
      "wrapS": 10497,
      "wrapT": 10497
    }
  ],
  "scene": 0,
  "scenes": [
    {
      "name": "Sketchfab_Scene",
      "nodes": [
        0
      ]
    }
  ],
  "textures": [
    {
      "sampler": 0,
      "source": 0
    },
    {
      "sampler": 0,
      "source": 1
    },
    {
      "sampler": 0,
      "source": 2
    },
    {
      "sampler": 0,
      "source": 3
    },
    {
      "sampler": 0,
      "source": 4
    },
    {
      "sampler": 0,
      "source": 5
    }
  ]
}
